<?xml version="1.0" encoding="UTF-8"?>
<!-- Generator: Adobe Illustrator 19.1.0, SVG Export Plug-In . SVG Version: 6.00 Build 0)  -->
<svg version="1.1" id="Logo" xmlns="http://www.w3.org/2000/svg" xmlns:xlink="http://www.w3.org/1999/xlink" x="0px" y="0px" viewBox="-719.8 374.8 240.9 65.7" style="enable-background:new -719.8 374.8 240.9 65.7;" xml:space="preserve">
<style type="text/css">
	.st0{fill:#00967F;}
	.st1{fill:#FFFFFF;}
	.st2{clip-path:url(#SVGID_2_);}
</style>
<g>
	<g>
		<path class="st0" d="M-719.8,414.1c9.3-4.8,22.9-12.5,39.1-23.8v-3.8c-14.2,9.3-28.7,16.8-39.1,21.7    C-719.8,408.2-719.8,414.1-719.8,414.1z"/>
		<path class="st0" d="M-719.8,402.8c10.3-4.2,24.8-10.7,39.1-19.2v-1.9c-13.4,6.6-27.3,10.8-39.1,13.4    C-719.8,395.1-719.8,402.8-719.8,402.8z"/>
		<path class="st0" d="M-680.8,414.1V395c-8.9,7.5-17.7,14-25.1,19.1L-680.8,414.1L-680.8,414.1z"/>
		<path class="st0" d="M-710.9,414.1c7-4.2,15.6-9.6,24-16c2-1.5,4-3,6-4.6v-2.4c-12.6,9.4-25.4,17.3-35.4,22.9H-710.9z"/>
		<path class="st0" d="M-719.8,392.3c11.4-2,25.4-5.6,39.1-12.1v-2.1c-13.8,6.2-27.5,8.8-39.1,9.7    C-719.8,387.8-719.8,392.3-719.8,392.3z"/>
		<path class="st0" d="M-719.8,374.8v10.9c0.9-0.1,1.7-0.1,2.6-0.2c9.5-0.7,22.5-2.4,36.5-8.5v-2.3    C-680.8,374.8-719.8,374.8-719.8,374.8z"/>
		<g>
			<g>
				<path class="st1" d="M-719.8,385.8v2c11.5-0.9,25.3-3.6,39.1-9.7v-0.9c-14,6.1-27,7.7-36.5,8.5      C-718.1,385.7-719,385.7-719.8,385.8z"/>
			</g>
		</g>
		<g>
			<g>
				<path class="st1" d="M-719.8,395.1c11.7-2.6,25.7-6.8,39.1-13.4v-1.5c-13.7,6.5-27.6,10.1-39.1,12.1      C-719.8,392.3-719.8,395.1-719.8,395.1z"/>
			</g>
		</g>
		<g>
			<g>
				<path class="st1" d="M-719.8,408.2c10.4-4.9,24.8-12.4,39.1-21.7v-2.9c-14.3,8.5-28.7,15-39.1,19.2V408.2z"/>
			</g>
		</g>
		<g>
			<g>
				<path class="st1" d="M-710.9,414.1h5c7.4-5.1,16.2-11.6,25.1-19.1v-1.5c-2,1.6-4.1,3.1-6.1,4.6      C-695.3,404.5-703.8,409.9-710.9,414.1z"/>
			</g>
		</g>
		<g>
			<g>
				<path class="st1" d="M-719.8,414.1h3.6c10-5.7,22.9-13.5,35.4-22.9v-0.9C-696.9,401.6-710.5,409.3-719.8,414.1L-719.8,414.1z"/>
			</g>
		</g>
	</g>
	<g>
		<g>
			<defs>
				<rect id="SVGID_1_" x="-667.6" y="385.5" width="188.7" height="29"/>
			</defs>
			<clipPath id="SVGID_2_">
				<use xlink:href="#SVGID_1_" style="overflow:visible;"/>
			</clipPath>
			<path class="st2" d="M-490.2,414.1h5V407c0-2.8,0-7.9,4.1-7.9c0.9,0,1.8,0.1,2.3,0.4v-5.1c-0.5-0.2-1.1-0.2-1.5-0.2     c-3,0-5.1,3-5.3,4.8h-0.1v-4.4h-4.5V414.1L-490.2,414.1z M-495.3,408.9c-1.9,1-4,2-6.4,2c-3.1,0-5.3-1.8-5.5-4.9h13.4     c0-6.8-2-11.7-9.2-11.7c-6,0-9,4.6-9,10.2c0,6.3,3.7,10,10.1,10c2.7,0,4.8-0.5,6.6-1.5L-495.3,408.9L-495.3,408.9z M-507.2,402.5     c0.2-2.6,1.6-4.5,4.5-4.5c2.8,0,3.9,2.1,4.1,4.5H-507.2z M-523.2,414.1h5v-15.6h4.4v-3.7h-4.4v-2.4c0-1.5,0.5-3,2.2-3     c1.1,0,1.7,0.4,2.2,0.7l0.4-4.2c-1-0.2-2.4-0.4-3.7-0.4c-4,0-6.2,2.7-6.2,6.6v2.7h-3.7v3.7h3.7V414.1z M-543.2,404     c0-2.9,1.6-5.7,4.8-5.7c3.3,0,4.9,2.8,4.9,5.7c0,3.2-1,6.7-4.9,6.7C-542.2,410.6-543.2,407.1-543.2,404 M-548.5,404.6     c0,5.5,3.7,10,10.1,10c6.4,0,10.1-4.4,10.1-10c0-6.4-4.4-10.2-10.1-10.2C-544.1,394.3-548.5,398.2-548.5,404.6 M-569.4,414.1h5     v-9.5c0-2.5,0.8-6.4,4.4-6.4c3.2,0,3.3,3.2,3.3,5.6v10.3h5v-12.2c0-4.4-2-7.6-6.6-7.6c-2.6,0-4.8,1.2-6.1,3.1h-0.1V386h-5V414.1     L-569.4,414.1z M-592.3,414.1h5v-9.5c0-2.5,0.8-6.4,4.4-6.4c3.2,0,3.3,3.2,3.3,5.6v10.3h5v-12.2c0-4.4-2-7.6-6.6-7.6     c-2.6,0-4.8,0.9-6.3,3.1h-0.1v-2.6h-4.8V414.1z M-597.5,394.8h-5v9.5c0,2.5-0.8,6.4-4.4,6.4c-3.2,0-3.3-3.2-3.3-5.6v-10.3h-5V407     c0,4.4,2,7.6,6.6,7.6c2.6,0,4.8-1.2,6.3-3.1h0.1v2.6h4.8L-597.5,394.8L-597.5,394.8z M-631.8,408.5c0-3,3.3-3.3,5.6-3.3h2.2     c0,1.5-0.2,2.9-1.1,4c-0.8,1-2,1.7-3.5,1.7C-630.4,410.9-631.8,410.2-631.8,408.5 M-634.3,400.1c1.7-1.3,3.8-2.1,6-2.1     c3,0,4.3,1,4.3,4.2h-2.8c-2.1,0-4.6,0.2-6.5,1.1s-3.3,2.6-3.3,5.5c0,3.7,3.3,5.7,6.7,5.7c2.3,0,4.8-1.2,6-3.3h0.1     c0,0.6,0,1.9,0.2,2.9h4.4c-0.1-1.5-0.2-2.9-0.2-4.3c0-1.4-0.1-2.9-0.1-4.8v-2.5c0-5.7-2.4-8.1-8.3-8.1c-2.1,0-4.8,0.6-6.7,1.5     L-634.3,400.1z M-649.4,414.1h5V407c0-2.8,0-7.9,4.1-7.9c0.9,0,1.8,0.1,2.3,0.4v-5.1c-0.5-0.2-1.1-0.2-1.5-0.2     c-3,0-5.1,3-5.3,4.8h-0.1v-4.4h-4.5V414.1z M-667.6,414.1h5.3v-11.5h8.9v-4.1h-8.9V392h9.3v-4.1h-14.6V414.1z"/>
		</g>
	</g>
</g>
<g>
	<path d="M-513.3,429.3c-0.2,0-0.4,0-0.7,0.1c-0.2,0-0.4,0.1-0.7,0.3c-0.2,0.1-0.4,0.3-0.5,0.6c-0.1,0.2-0.2,0.5-0.2,0.9   c0,0.3,0.1,0.5,0.3,0.7c0.2,0.2,0.4,0.4,0.6,0.5c0.3,0.1,0.6,0.3,0.9,0.4c0.3,0.1,0.6,0.3,1,0.4c0.4,0.1,0.7,0.3,1,0.5   c0.3,0.2,0.6,0.4,0.9,0.7c0.3,0.3,0.5,0.6,0.6,1c0.1,0.4,0.2,0.9,0.2,1.4c0,1.4-0.5,2.4-1.4,3c-0.9,0.6-2,0.9-3.4,0.9   c-0.7,0-1.2-0.1-1.6-0.1c-0.5-0.1-1-0.2-1.6-0.4l0.2-2.4c0.9,0.5,1.8,0.8,2.9,0.8c0.5,0,1-0.1,1.5-0.4c0.5-0.3,0.7-0.7,0.7-1.3   c0-0.3-0.1-0.6-0.2-0.8c-0.2-0.2-0.4-0.4-0.6-0.6c-0.6-0.3-1.2-0.6-1.9-0.9c-0.4-0.2-0.7-0.3-1-0.5c-0.3-0.2-0.6-0.4-0.9-0.7   c-0.3-0.3-0.5-0.6-0.6-1c-0.2-0.4-0.3-0.8-0.3-1.4c0-1.5,0.5-2.5,1.4-3.1c0.9-0.6,1.9-0.9,3-0.9c1.1,0,2.1,0.2,3,0.5l-0.2,2.2   C-511.5,429.5-512.4,429.3-513.3,429.3z"/>
	<path d="M-497.9,440.3c-0.9,0.3-1.9,0.4-2.9,0.4c-2.1,0-3.7-0.5-5-1.6c-1.3-1.1-1.9-2.7-2-4.9c0.1-4.6,2.4-6.9,6.9-7   c0.9,0,1.9,0.2,2.9,0.5l-0.2,2.2c-0.5-0.3-0.9-0.5-1.4-0.6c-0.4-0.1-0.9-0.1-1.4-0.1c-1.3,0-2.3,0.5-3.1,1.4   c-0.8,0.9-1.2,2-1.2,3.4c0,1.4,0.4,2.5,1.1,3.3c0.7,0.9,1.8,1.3,3.2,1.4c0.5,0,1-0.1,1.6-0.2c0.5-0.1,0.9-0.2,1.2-0.4L-497.9,440.3   z"/>
	<path d="M-491.5,427.4h2.9l5,13.1h-2.8l-1.1-3h-5.1l-1.1,3h-2.6L-491.5,427.4z M-490.1,430.1L-490.1,430.1l-1.9,5.4h3.7   L-490.1,430.1z"/>
	<path d="M-481.4,427.4h2.5v13.1h-2.5V427.4z"/>
</g>
</svg>